<svg width="16" height="15" viewBox="0 0 16 15" fill="none" xmlns="http://www.w3.org/2000/svg">
<path d="M0.512268 0.5C0.512268 0.367392 0.564504 0.240215 0.657483 0.146447C0.750463 0.0526784 0.87657 0 1.00806 0H2.49545C2.60604 3.08115e-05 2.71345 0.0373507 2.80059 0.106025C2.88774 0.174699 2.94961 0.270784 2.97637 0.379L3.37797 2H14.8903C14.9631 2.00007 15.035 2.0163 15.1009 2.04755C15.1668 2.0788 15.225 2.12429 15.2715 2.1808C15.318 2.23731 15.3515 2.30345 15.3698 2.37452C15.3881 2.44558 15.3906 2.51984 15.3772 2.592L13.8898 10.592C13.8686 10.7066 13.8083 10.8101 13.7194 10.8846C13.6305 10.9591 13.5185 10.9999 13.403 11H4.47863C4.36304 10.9999 4.25113 10.9591 4.16223 10.8846C4.07332 10.8101 4.01303 10.7066 3.99176 10.592L2.50537 2.607L2.10873 1H1.00806C0.87657 1 0.750463 0.947322 0.657483 0.853553C0.564504 0.759785 0.512268 0.632608 0.512268 0.5ZM5.47022 11C4.94425 11 4.43982 11.2107 4.0679 11.5858C3.69598 11.9609 3.48704 12.4696 3.48704 13C3.48704 13.5304 3.69598 14.0391 4.0679 14.4142C4.43982 14.7893 4.94425 15 5.47022 15C5.9962 15 6.50063 14.7893 6.87254 14.4142C7.24446 14.0391 7.4534 13.5304 7.4534 13C7.4534 12.4696 7.24446 11.9609 6.87254 11.5858C6.50063 11.2107 5.9962 11 5.47022 11ZM12.4114 11C11.8854 11 11.381 11.2107 11.009 11.5858C10.6371 11.9609 10.4282 12.4696 10.4282 13C10.4282 13.5304 10.6371 14.0391 11.009 14.4142C11.381 14.7893 11.8854 15 12.4114 15C12.9373 15 13.4418 14.7893 13.8137 14.4142C14.1856 14.0391 14.3945 13.5304 14.3945 13C14.3945 12.4696 14.1856 11.9609 13.8137 11.5858C13.4418 11.2107 12.9373 11 12.4114 11ZM5.47022 12C5.73321 12 5.98542 12.1054 6.17138 12.2929C6.35734 12.4804 6.46181 12.7348 6.46181 13C6.46181 13.2652 6.35734 13.5196 6.17138 13.7071C5.98542 13.8946 5.73321 14 5.47022 14C5.20724 14 4.95502 13.8946 4.76906 13.7071C4.5831 13.5196 4.47863 13.2652 4.47863 13C4.47863 12.7348 4.5831 12.4804 4.76906 12.2929C4.95502 12.1054 5.20724 12 5.47022 12ZM12.4114 12C12.6743 12 12.9266 12.1054 13.1125 12.2929C13.2985 12.4804 13.403 12.7348 13.403 13C13.403 13.2652 13.2985 13.5196 13.1125 13.7071C12.9266 13.8946 12.6743 14 12.4114 14C12.1484 14 11.8962 13.8946 11.7102 13.7071C11.5242 13.5196 11.4198 13.2652 11.4198 13C11.4198 12.7348 11.5242 12.4804 11.7102 12.2929C11.8962 12.1054 12.1484 12 12.4114 12Z" fill="#191919"/>
</svg>
